HIERARCHY
ROOT Hips
{
  OFFSET -102.467 93.6631 130.069
  CHANNELS 6 Xposition Yposition Zposition Zrotation Xrotation Yrotation
  JOINT LeftUpLeg
  {
    OFFSET 8.64259 1.95398 -2.38835
    CHANNELS 3 Zrotation Xrotation Yrotation
    JOINT LeftLeg
    {
      OFFSET 43.7702 0 0
      CHANNELS 3 Zrotation Xrotation Yrotation
      JOINT LeftFoot
      {
        OFFSET 40.6238 0 0
        CHANNELS 3 Zrotation Xrotation Yrotation
        JOINT LeftToeBase
        {
          OFFSET 12.7242 0 0
          CHANNELS 3 Zrotation Xrotation Yrotation
          End Site
          {
            OFFSET 0 0 0
          }
        }
      }
    }
  }
  JOINT RightUpLeg
  {
    OFFSET -8.2249 1.95398 -2.59336
    CHANNELS 3 Zrotation Xrotation Yrotation
    JOINT RightLeg
    {
      OFFSET 43.5653 0 0
      CHANNELS 3 Zrotation Xrotation Yrotation
      JOINT RightFoot
      {
        OFFSET 40.6238 0 0
        CHANNELS 3 Zrotation Xrotation Yrotation
        JOINT RightToeBase
        {
          OFFSET 12.7242 0 0
          CHANNELS 3 Zrotation Xrotation Yrotation
          End Site
          {
            OFFSET 0 0 0
          }
        }
      }
    }
  }
  JOINT Spine
  {
    OFFSET 0.165834 0.87714 6.61349
    CHANNELS 3 Zrotation Xrotation Yrotation
    JOINT Spine1
    {
      OFFSET 7.38963 1.71661e-005 0
      CHANNELS 3 Zrotation Xrotation Yrotation
      JOINT Spine2
      {
        OFFSET 11.9445 1.14441e-005 0
        CHANNELS 3 Zrotation Xrotation Yrotation
        JOINT Spine3
        {
          OFFSET 14.7254 4.19617e-005 0
          CHANNELS 3 Zrotation Xrotation Yrotation
          JOINT Spine4
          {
            OFFSET 10.9679 0 0
            CHANNELS 3 Zrotation Xrotation Yrotation
            JOINT RightShoulder
            {
              OFFSET 2.46616 -1.6653 3.69651
              CHANNELS 3 Zrotation Xrotation Yrotation
              JOINT RightArm
              {
                OFFSET 13.0012 0 0
                CHANNELS 3 Zrotation Xrotation Yrotation
                JOINT RightForeArm
                {
                  OFFSET 28.7848 1.52588e-005 0
                  CHANNELS 3 Zrotation Xrotation Yrotation
                  JOINT RightHand
                  {
                    OFFSET 26.5688 1.52588e-005 0
                    CHANNELS 3 Zrotation Xrotation Yrotation
                    End Site
                    {
                      OFFSET 0 0 0
                    }
                  }
                }
              }
            }
            JOINT LeftShoulder
            {
              OFFSET 2.38034 -1.29275 -3.7523
              CHANNELS 3 Zrotation Xrotation Yrotation
              JOINT LeftArm
              {
                OFFSET 16.3182 6.10351e-005 0
                CHANNELS 3 Zrotation Xrotation Yrotation
                JOINT LeftForeArm
                {
                  OFFSET 27.0901 0 0
                  CHANNELS 3 Zrotation Xrotation Yrotation
                  JOINT LeftHand
                  {
                    OFFSET 24.5451 1.52588e-005 0
                    CHANNELS 3 Zrotation Xrotation Yrotation
                    End Site
                    {
                      OFFSET 0 0 0
                    }
                  }
                }
              }
            }
            JOINT Neck
            {
              OFFSET 5.0226 -0.0266342 0
              CHANNELS 3 Zrotation Xrotation Yrotation
              JOINT Head
              {
                OFFSET 6.69363 2.86102e-005 0
                CHANNELS 3 Zrotation Xrotation Yrotation
                End Site
                {
                  OFFSET 0 0 0
                }
              }
            }
          }
        }
      }
    }
  }
}
MOTION
Frames:	12
Frame Time:	0.0416667
-143.539 98.6518 22.76 142.939 -86.1068 143.416 -174.307 -1.84143 90.7441 -9.37656 18.0621 2.01676 56.6715 2.52387 11.7491 40.6309 -1.31707 0.392215 176.085 2.94607 89.2099 -17.7573 -2.46205 -0.861343 62.1434 8.28893 17.2625 23.3129 2.0448 6.89943 -0.269617 7.10721 -90.1199 12.6591 -0.592734 -0.169873 0.988279 -0.599631 -0.143628 -21.5477 -0.514273 -0.340162 -1.53501 -0.514274 -0.340164 100.698 -52.9196 -84.3796 30.4075 -8.40402 -6.41275 -2.04101 -10.5928 -12.3797 -10.7595 -0.679518 2.24909 -81.8009 -54.6268 91.1723 -23.8806 6.80588 -15.7496 1.59209 31.2733 -6.36557 -1.75151 -0.102279 -5.08627 -2.79548 1.54079 -3.38645 -16.0347 1.59004 3.2161 
-143.584 98.7179 22.807 145.28 -86.3409 145.778 -173.68 -2.13454 91.0781 -8.47714 18.6867 1.49142 56.296 2.35176 12.0637 40.3136 -1.31571 0.1848 176.184 2.82046 89.2913 -17.2997 -2.72768 -0.919653 61.9182 8.2664 17.2701 23.4872 1.97911 6.57447 -0.219183 7.11233 -90.0898 12.6491 -0.478189 -0.123241 0.978198 -0.483154 -0.102083 -21.5575 -0.419044 -0.261261 -1.54484 -0.419044 -0.261269 101.02 -53.2328 -83.8886 30.486 -8.37594 -6.60656 -2.12418 -10.8065 -12.523 -10.9021 -0.713412 2.50104 -82.0417 -53.5879 90.7522 -24.6918 6.86782 -15.8587 1.47758 31.1624 -6.07619 -2.10312 -0.102285 -5.04871 -2.19378 1.25149 -5.58847 -16.5366 1.33993 5.29813 
-143.658 98.6321 22.8605 154.282 -86.363 155.052 -173.801 -1.68092 91.2075 -10.2526 17.4559 1.83276 57.4124 2.74567 11.576 40.2565 -1.26776 0.429682 176.205 2.75959 89.5414 -17.7532 -3.40777 -0.802006 62.1795 7.9748 16.8374 24.0041 1.87352 6.42684 -0.170874 7.1389 -90.1675 12.5955 -0.419252 -0.285688 0.924605 -0.431421 -0.266964 -21.6106 -0.31401 -0.398482 -1.59799 -0.314007 -0.39848 100.824 -52.7518 -84.1939 30.4834 -8.50194 -6.60644 -2.15579 -10.6834 -12.3174 -9.71381 -0.556107 1.55951 -81.8969 -54.9841 91.0582 -23.319 7.20685 -15.9817 1.06486 31.0281 -6.11543 -2.28143 -0.102314 -4.8646 -1.52313 1.19259 -6.62037 -17.7549 1.12836 7.4726 
-143.662 98.6324 22.852 153.452 -86.2906 154.361 -173.752 -1.66293 91.3364 -10.3204 17.7572 1.88322 57.3293 2.76553 11.8053 40.504 -1.27869 0.532046 176.159 2.67955 89.6666 -17.6458 -3.39981 -0.677861 61.9945 7.843 16.4542 24.2943 1.8904 7.0077 -0.167481 7.15546 -90.1995 12.5622 -0.427739 -0.348802 0.891289 -0.442673 -0.329646 -21.6438 -0.303134 -0.461231 -1.63116 -0.303132 -0.46123 101.011 -52.5947 -83.9143 30.4612 -8.58844 -6.79799 -2.09935 -10.6107 -12.296 -9.82286 -0.562972 1.55847 -81.9407 -55.3199 91.0181 -23.3158 7.10602 -15.9223 1.12903 30.0082 -6.21247 -1.35422 -0.102312 -4.8785 -1.02831 1.22349 -6.22298 -18.3169 1.13807 7.14038 
-143.679 98.6488 22.8705 153.302 -86.2407 154.205 -173.666 -1.76685 91.3977 -10.1823 17.7839 1.82866 57.3099 2.76725 11.7105 40.4159 -1.3151 0.258385 176.159 2.61967 89.6876 -17.6583 -3.36937 -0.681698 62.1053 7.75577 16.3016 23.9396 1.9623 7.11029 -0.17182 7.16894 -90.1897 12.5353 -0.431649 -0.328834 0.864349 -0.445707 -0.309521 -21.6708 -0.312865 -0.44336 -1.65817 -0.312866 -0.443361 100.934 -52.6824 -84.0293 30.5889 -8.43091 -6.7908 -2.19609 -10.7541 -12.3469 -9.88669 -0.55848 1.41715 -82.0664 -54.9122 90.81 -23.6956 6.98184 -15.8692 1.45646 30.9691 -6.40521 -1.87665 -0.102309 -4.89816 -0.980596 1.09402 -6.46401 -18.1457 1.02694 7.36014 
-143.685 98.6419 22.8612 152.819 -86.2058 153.728 -173.708 -1.68918 91.3851 -10.3835 17.6107 1.87916 57.5239 2.81796 11.5143 39.9998 -1.25428 0.3333 176.265 2.47084 89.7171 -17.4351 -3.26785 -0.811283 62.0947 7.94592 16.8458 24.0284 1.85954 6.35104 -0.175449 7.17713 -90.1902 12.5189 -0.439151 -0.329186 0.847948 -0.4532 -0.309539 -21.6872 -0.320593 -0.445923 -1.67459 -0.320587 -0.445928 100.931 -52.577 -84.0348 30.7759 -8.41855 -6.78995 -2.19347 -10.73 -12.3743 -9.98346 -0.555937 1.35865 -81.9967 -54.7176 90.8969 -23.7431 7.37291 -16.0113 1.17419 30.7642 -6.23839 -1.57339 -0.102277 -5.0971 -1.61523 0.853898 -7.38251 -17.01 0.759208 8.95964 
-143.706 98.6413 22.883 151.54 -86.2135 152.4 -173.773 -1.71762 91.3284 -10.2247 17.8314 1.90012 57.212 2.69092 11.719 40.597 -1.31441 0.385353 176.157 2.60823 89.6728 -17.5801 -3.30587 -0.687153 61.9997 7.78413 16.3373 24.0875 1.94155 7.14621 -0.176596 7.18335 -90.1958 12.5097 -0.442513 -0.339801 0.838788 -0.45726 -0.319931 -21.6964 -0.323322 -0.45754 -1.68375 -0.323322 -0.457536 101.003 -52.4769 -83.929 30.7322 -8.54966 -6.88229 -2.10099 -10.5229 -12.3496 -10.0989 -0.568962 1.43358 -82.0076 -54.8458 90.8897 -23.9143 7.03593 -16.0724 1.3744 30.9865 -6.26402 -1.68623 -0.102259 -5.21311 -1.51385 0.902381 -7.44855 -16.9819 0.807692 9.11198 
-143.724 98.6406 22.9085 150.849 -86.2142 151.658 -173.769 -1.7005 91.3074 -10.2663 17.7989 1.87716 57.362 2.76259 11.6173 40.3237 -1.25447 0.554754 176.091 2.63699 89.5891 -17.6317 -3.35086 -0.645985 61.979 7.85543 16.3748 24.3976 1.87914 7.05956 -0.175507 7.18206 -90.1922 12.5103 -0.439345 -0.333009 0.839403 -0.453644 -0.313315 -21.6958 -0.319677 -0.449896 -1.68313 -0.319668 -0.449894 101.058 -52.6715 -83.8411 30.4851 -8.64545 -6.83498 -2.06719 -10.3697 -12.4016 -10.0302 -0.563058 1.40961 -82.0891 -54.7742 90.7677 -23.5959 7.68524 -16.2653 0.673656 30.5051 -5.81328 -1.57855 -0.102255 -5.23722 -1.27211 0.900195 -7.66822 -17.4391 0.786036 9.32516 
-143.722 98.6292 22.9326 149.441 -86.1948 150.219 -173.9 -1.6736 91.2238 -10.2669 17.7023 1.96215 57.3023 2.73266 11.6329 40.5466 -1.34116 0.194628 176.059 2.56848 89.5512 -17.495 -3.33668 -0.627196 62.0865 7.79262 16.4036 24.3367 1.87979 6.97791 -0.184351 7.18162 -90.1804 12.51 -0.452105 -0.308064 0.839074 -0.465221 -0.287877 -21.6962 -0.338621 -0.429697 -1.68353 -0.338615 -0.429701 101.05 -52.7502 -83.8524 30.534 -8.52139 -6.84347 -2.07339 -10.2676 -12.3577 -9.92464 -0.546811 1.28445 -82.1033 -54.4406 90.7235 -23.8384 7.87674 -16.3239 0.344156 29.4369 -5.46948 -0.950253 -0.102242 -5.31432 -0.48502 1.10253 -6.65256 -18.7843 1.03416 7.45681 
-143.713 98.6269 22.9662 149.394 -86.195 150.122 -173.89 -1.81192 91.1855 -10.0373 17.8248 1.9268 57.1489 2.688 11.7242 40.5928 -1.33868 0.240742 176.007 2.66912 89.4713 -17.7219 -3.27293 -0.610797 62.0884 7.91602 16.5738 24.1526 1.90496 6.9258 -0.181676 7.18645 -90.1834 12.4926 -0.447073 -0.317231 0.821649 -0.460587 -0.297276 -21.7136 -0.33291 -0.436826 -1.70093 -0.332903 -0.436812 101.146 -52.6393 -83.7103 30.7372 -8.24256 -6.93285 -2.31991 -10.8777 -12.4375 -9.81913 -0.55886 1.50674 -82.2047 -54.647 90.5922 -23.7215 7.72889 -16.3908 0.416684 30.1655 -5.40134 -1.02547 -0.101561 -5.31476 -0.483649 1.13914 -6.55291 -18.519 1.07021 7.49214 
-143.726 98.6189 23.0047 149.48 -86.1998 150.178 -173.911 -1.82774 91.1576 -10.106 17.5765 1.94367 57.4689 2.83528 11.4677 40.179 -1.26891 0.370167 176.037 2.66625 89.4725 -17.8007 -3.35012 -0.65094 62.3126 7.82542 16.4946 24.0199 1.90876 6.76271 -0.185418 7.19 -90.1806 12.4899 -0.451476 -0.315383 0.819003 -0.464851 -0.295659 -21.7162 -0.340625 -0.435127 -1.70359 -0.340627 -0.435123 101.097 -52.5433 -83.7851 30.8584 -8.11933 -6.90772 -2.33391 -10.8254 -12.4262 -9.8231 -0.550503 1.40046 -82.1295 -54.6836 90.7032 -23.6263 7.83366 -16.3906 0.317558 29.847 -5.38046 -1.03988 -0.100866 -5.50616 -0.602261 1.07746 -6.50634 -18.3432 1.00195 7.53662 
-143.711 98.623 23.0347 149.242 -86.2997 149.956 -173.96 -1.80336 91.1275 -10.0049 17.6116 1.97352 57.3032 2.80061 11.5953 40.4618 -1.30232 0.365196 175.927 2.75119 89.4161 -17.7881 -3.37909 -0.52955 62.3011 7.77368 16.4364 23.8315 1.97866 7.09506 -0.184737 7.18978 -90.1822 12.4953 -0.453821 -0.311394 0.824362 -0.467081 -0.2912 -21.7109 -0.339136 -0.433285 -1.69825 -0.339131 -0.433288 101.164 -52.6757 -83.6814 30.6843 -8.39138 -6.9791 -2.22578 -10.6342 -12.4598 -9.9253 -0.560295 1.44888 -82.053 -54.7252 90.8162 -23.5139 7.84906 -16.4073 0.354213 30.0807 -5.50174 -1.33035 -0.0999362 -5.54328 -0.329393 1.13277 -6.37741 -18.7263 1.07582 7.1726 
